<svg width="8" height="48" viewBox="0 0 8 48" fill="none" xmlns="http://www.w3.org/2000/svg">
<path fill-rule="evenodd" clip-rule="evenodd" d="M4 8C6.20914 8 8 6.20914 8 4C8 1.79086 6.20914 0 4 0C1.79086 0 0 1.79086 0 4C0 6.20914 1.79086 8 4 8ZM4 6C5.10457 6 6 5.10458 6 4C6 2.89542 5.10457 2 4 2C2.89543 2 2 2.89542 2 4C2 5.10458 2.89543 6 4 6Z" fill="#E5E5E5"/>
<circle cx="4" cy="44" r="4" fill="#FF9500"/>
<circle cx="4" cy="11" r="1" fill="#C4C4C4"/>
<circle cx="4" cy="16" r="1" fill="#C4C4C4"/>
<circle cx="4" cy="21" r="1" fill="#C4C4C4"/>
<circle cx="4" cy="26" r="1" fill="#C4C4C4"/>
<circle cx="4" cy="31" r="1" fill="#C4C4C4"/>
<circle cx="4" cy="36" r="1" fill="#C4C4C4"/>
</svg>
